<svg width="24" height="21" viewBox="0 0 24 21" xmlns="http://www.w3.org/2000/svg"><defs><linearGradient x1="82.7%" y1="-6.296%" x2="-17.475%" y2="119.385%" id="a"><stop stop-color="#FFF" offset="0%"/><stop stop-color="#FF8E33" offset="100%"/></linearGradient></defs><path d="M9.39 4.132H8.64c-.564 0-.878.278-1.107.907l-3.019 8.956A.795.795 0 0 0 4.985 15a.76.76 0 0 0 .977-.486l.84-2.493h4.427l.802 2.393c.077 2.839 2.39 5.12 5.245 5.12a5.218 5.218 0 0 0 3.112-1.04l2.279 2.277a.78.78 0 1 0 1.104-1.104l-2.277-2.28a5.217 5.217 0 0 0 1.042-3.114 5.258 5.258 0 0 0-5.258-5.258c-1.95 0-3.633 1.074-4.54 2.651l-2.24-6.673c-.206-.58-.52-.861-1.108-.861zm-2.08 6.385l1.644-4.883h.134l1.638 4.883H7.309zm12.962 6.002a.777.777 0 0 0-.526.223.765.765 0 0 0-.22.524 3.73 3.73 0 0 1-2.248.763 3.749 3.749 0 0 1-3.744-3.636.8.8 0 0 0 .003-.254 3.748 3.748 0 0 1 3.74-3.62 3.756 3.756 0 0 1 3.757 3.756c0 .844-.29 1.616-.762 2.244zM9.766 18.03H3.005c-.831 0-1.503-.673-1.503-1.502V3.005c0-.831.672-1.503 1.503-1.503h13.522c.829 0 1.502.672 1.502 1.503V6.76a.751.751 0 0 0 1.502 0V3.005A3.006 3.006 0 0 0 16.527 0H3.005A3.006 3.006 0 0 0 0 3.005v13.522a3.006 3.006 0 0 0 3.005 3.005h6.76a.751.751 0 0 0 0-1.503z" fill-rule="nonzero" fill="url(#a)"/></svg>