<svg width="21" height="21" viewBox="0 0 21 21" xmlns="http://www.w3.org/2000/svg"><g fill="none" fill-rule="evenodd"><rect fill="#E1E1E1" width="21" height="21" rx="10.5"/><g fill="#FFF" fill-rule="nonzero"><path d="M10.549 16.919c-.209 0-.414-.056-.593-.163L5.43 14.148a1.186 1.186 0 0 1-.618-1.032V7.892a1.178 1.178 0 0 1 .602-1.032l4.534-2.616c.37-.212.824-.212 1.194 0l4.526 2.616c.368.213.594.606.593 1.032v5.224c0 .425-.226.818-.593 1.032l-4.526 2.608a1.21 1.21 0 0 1-.593.163zm0-12.025a.39.39 0 0 0-.187.057L5.836 7.559a.382.382 0 0 0-.211.333v5.224c.001.136.076.26.195.325l4.526 2.616a.382.382 0 0 0 .373 0l4.526-2.616a.382.382 0 0 0 .187-.325V7.892a.398.398 0 0 0-.187-.333l-4.51-2.608a.39.39 0 0 0-.186-.057z"/><path d="M10.5 14.871a.406.406 0 0 1-.406-.406v-4.371c0-.225.182-.406.406-.406a.414.414 0 0 1 .406.406v4.371a.406.406 0 0 1-.406.406z"/><path d="M10.5 10.5a.413.413 0 0 1-.146-.813l3.396-1.3a.406.406 0 1 1 .292.756L10.68 10.5a.317.317 0 0 1-.179 0z"/><path d="M10.5 10.5a.317.317 0 0 1-.146 0L7.12 9.184a.406.406 0 1 1 .292-.756l3.202 1.26a.41.41 0 1 1-.114.812z"/><path d="M6.112 8.745a1.007 1.007 0 1 0 2.015 0 1.007 1.007 0 0 0-2.014 0zM9.59 14.473a1.007 1.007 0 1 0 2.015 0 1.007 1.007 0 0 0-2.015 0zM12.97 8.745a1.007 1.007 0 1 0 2.015 0 1.007 1.007 0 0 0-2.015 0z"/></g></g></svg>