<svg width="19" height="19" viewBox="0 0 19 19" xmlns="http://www.w3.org/2000/svg"><defs><linearGradient x1="62.963%" y1="-23.53%" x2="23.251%" y2="140.626%" id="a"><stop stop-color="#FFF" offset="0%"/><stop stop-color="#FF8E33" offset="100%"/></linearGradient><linearGradient x1="82.7%" y1="-10.768%" x2="-17.475%" y2="124.897%" id="b"><stop stop-color="#FFF" offset="0%"/><stop stop-color="#FF8E33" offset="100%"/></linearGradient></defs><g fill-rule="nonzero" fill="none"><path d="M4.69 16.822H1.984c-.394 0-.718-.336-.718-.755V2.05c0-.42.324-.755.718-.755H9.42c.395 0 .72.336.72.755a.64.64 0 0 0 .633.647.64.64 0 0 0 .633-.647C11.406.92 10.52 0 9.421 0H1.985C.887 0 0 .92 0 2.05v14.018c0 1.129.887 2.048 1.985 2.048H4.69a.64.64 0 0 0 .634-.647.64.64 0 0 0-.634-.647z" fill="url(#a)" transform="translate(-.058 .142)"/><path d="M17.883 9.642c-.522-2.402-2.24-4.786-3.677-4.372-.515.148-.91.419-1.165.792-.463-.214-.938-.235-1.402-.03-.34.145-.624.395-.812.713-.534-.27-1.149-.264-1.793.037-.137.063-.267.14-.388.23-1.57-2.21-2.853-3.207-4.009-2.946C3 4.436 3 5.858 4.242 7.72l2.385 3.672c-1.309-.245-2.255-.034-2.816.712-.917 1.221.053 2.35 2.308 3.36l4.356 1.93c.325.137.7-.01.843-.33a.642.642 0 0 0-.318-.845L6.646 14.29c-.879-.393-1.459-.762-1.726-1.073-.155-.18-.16-.23-.075-.343.319-.424 1.31-.424 3.037.217.582.217 1.105-.43.768-.951L5.322 7.015c-.827-1.24-.827-1.598-.4-1.694.567-.128 1.758.992 3.34 3.426.119.28.304.57.552.864.514.608 1.461-.072 1.045-.75a40.863 40.863 0 0 0-.465-.74c.011-.075.078-.123.188-.175.453-.211.736-.13 1.053.315.352.495 1.134.274 1.17-.333.027-.425.145-.628.355-.72.18-.08.405-.011.755.321a.647.647 0 0 0 1.089-.408c.03-.333.182-.507.56-.617.398-.114 1.678 1.662 2.057 3.41.274 1.257.274 2.752-.006 4.483a.645.645 0 1 0 1.275.204c.303-1.88.303-3.532-.007-4.959z" fill="url(#b)" transform="translate(-.058 .142)"/></g></svg>