<svg width="21" height="21" viewBox="0 0 21 21" xmlns="http://www.w3.org/2000/svg"><defs><linearGradient x1="82.7%" y1="-23.53%" x2="-17.475%" y2="140.626%" id="a"><stop stop-color="#FFF" offset="0%"/><stop stop-color="#FF8E33" offset="100%"/></linearGradient></defs><path d="M16.802 10.03l3.448 2.03c.464.273.75.778.75 1.324v4.058c0 .546-.286 1.051-.75 1.324l-3.448 2.03a1.476 1.476 0 0 1-1.5 0l-3.448-2.03a1.535 1.535 0 0 1-.75-1.324v-4.058c0-.546.285-1.051.75-1.324l3.447-2.03a1.476 1.476 0 0 1 1.501 0zm-11.103 0l3.447 2.03c.465.273.75.778.75 1.324v4.058c0 .546-.285 1.051-.75 1.324L5.7 20.796a1.476 1.476 0 0 1-1.501 0L.75 18.765A1.535 1.535 0 0 1 0 17.442v-4.058c0-.546.286-1.051.75-1.324l3.448-2.03a1.476 1.476 0 0 1 1.5 0zm10.165.994l-3.448 2.029a.384.384 0 0 0-.187.331v4.058c0 .136.071.263.187.33l3.448 2.03c.116.068.26.068.375 0l3.448-2.03a.384.384 0 0 0 .188-.33v-4.058a.384.384 0 0 0-.188-.331l-3.448-2.029a.369.369 0 0 0-.375 0zm-11.103 0l-3.448 2.029a.384.384 0 0 0-.188.331v4.058c0 .136.072.263.188.33l3.448 2.03c.116.068.259.068.375 0l3.448-2.03a.384.384 0 0 0 .187-.33v-4.058a.384.384 0 0 0-.187-.331l-3.448-2.029a.369.369 0 0 0-.375 0zM11.25.204l3.447 2.03c.464.273.75.778.75 1.324v4.058c0 .546-.286 1.051-.75 1.324l-3.448 2.03a1.476 1.476 0 0 1-1.5 0L6.302 8.94a1.535 1.535 0 0 1-.75-1.324V3.558c0-.546.286-1.051.75-1.324L9.75.204a1.476 1.476 0 0 1 1.5 0zm-.939.994l-3.447 2.03a.384.384 0 0 0-.188.33v4.058c0 .137.072.263.188.331l3.447 2.029c.117.068.26.068.376 0l3.447-2.029a.384.384 0 0 0 .188-.331V3.558a.384.384 0 0 0-.188-.33l-3.447-2.03a.369.369 0 0 0-.376 0z" fill-rule="nonzero" fill="url(#a)"/></svg>