<svg width="16" height="16" viewBox="0 0 16 16" xmlns="http://www.w3.org/2000/svg"><path d="M14.528 8.104L9.696 4.648V2.024a1.8 1.8 0 0 0-.784-1.48A1.762 1.762 0 0 0 7.248.368l-5.36 2.144a1.82 1.82 0 0 0-1.16 1.696v9.76c0 .992.808 1.808 1.808 1.808H13.48c.992 0 1.808-.808 1.808-1.808V9.584a1.81 1.81 0 0 0-.76-1.48zm-12.84 5.864v-9.76a.87.87 0 0 1 .544-.808l5.36-2.144a.79.79 0 0 1 .768.08c.232.152.36.408.36.68v12.792H5.68v-4.312a.481.481 0 0 0-.48-.48.481.481 0 0 0-.48.48v4.312H2.536a.842.842 0 0 1-.848-.84zm12.64 0a.848.848 0 0 1-.848.848H9.688V5.824l4.28 3.056c.224.16.36.424.36.704v4.384z" fill="#3C3B3C" fill-rule="nonzero"/></svg>