<svg width="25" height="25" viewBox="0 0 25 25" xmlns="http://www.w3.org/2000/svg"><defs><linearGradient x1="-49.561%" y1="-38.338%" x2="134.634%" y2="107.811%" id="a"><stop stop-color="#FFF7D3" offset="0%"/><stop stop-color="#E8D177" offset="100%"/></linearGradient></defs><path d="M24 4.438C24 3.644 23.356 3 22.562 3H2.438C1.644 3 1 3.644 1 4.438v2.876h22.997V4.438H24zm0 4.311H1.003v11.603c0 .737.597 1.334 1.334 1.334h20.328c.738 0 1.335-.597 1.335-1.334V8.749zM9.268 17.375H3.52a.72.72 0 0 1 0-1.438h5.75a.72.72 0 0 1 0 1.438zm1.438-2.876H3.52a.72.72 0 0 1 0-1.438h7.187a.72.72 0 0 1 0 1.438zm5.45 0h-1.438a.72.72 0 0 1 0-1.438h1.438a.72.72 0 0 1 0 1.438z" fill="url(#a)" fill-rule="evenodd"/></svg>