<svg width="25" height="25" viewBox="0 0 25 25" xmlns="http://www.w3.org/2000/svg"><defs><linearGradient x1="-8.912%" y1="-83.834%" x2="100.079%" y2="137.586%" id="a"><stop stop-color="#FFF7D3" offset="0%"/><stop stop-color="#E8D177" offset="100%"/></linearGradient><linearGradient x1="-11.463%" y1="-83.834%" x2="102.249%" y2="137.586%" id="b"><stop stop-color="#FFF7D3" offset="0%"/><stop stop-color="#E8D177" offset="100%"/></linearGradient></defs><g fill="none" fill-rule="evenodd"><path d="M12 21.71V18.94c0-.168.147-.29.31-.29h1.416l.114-.046c2.492-.949 2.2-3.9 2.118-4.481l-.05-.306-.276-.153c-.814-.46-1.32-1.285-1.32-2.157 0-1.392 1.206-2.508 2.672-2.508h.195c1.157.076 2.15.872 2.41 1.942.245 1.025-.195 2.08-1.107 2.662l-.26.152-.033.291c-.114.841-.31 3.64 2.1 4.558l.131.046h1.27a.3.3 0 0 1 .31.29v2.738c0 .29-.114.321-.26.321h-9.43a.3.3 0 0 1-.31-.29z" fill="url(#a)" transform="translate(2 1)"/><path d="M10.08 18.818c0-.945.782-1.71 1.746-1.71h1.414c1.015-.522 1.081-1.923 1.048-2.64-1.098-.831-1.763-2.118-1.763-3.487 0-2.427 2.012-4.252 4.507-4.252.134 0 .283 0 .416.016v-5.18C17.448.7 16.733 0 15.851 0H1.597C.715 0 0 .7 0 1.564v19.079c0 .863.715 1.564 1.597 1.564h8.483v-3.389zM3.147 3.172h8.775c.426 0 .768.353.768.794 0 .44-.342.793-.768.793H3.147a.778.778 0 0 1-.768-.793c0-.441.342-.794.768-.794zm4.087 9.518H3.87c-.388 0-.698-.345-.698-.793 0-.431.31-.776.698-.794h3.364c.387 0 .697.345.697.794 0 .43-.31.793-.697.793zM8.76 8.724H3.137c-.421 0-.758-.352-.758-.793 0-.44.337-.793.758-.793H8.76c.42 0 .757.352.757.793 0 .44-.336.793-.757.793z" fill="url(#b)" transform="translate(2 1)"/></g></svg>