<svg width="40" height="40" viewBox="0 0 40 40" xmlns="http://www.w3.org/2000/svg" xmlns:xlink="http://www.w3.org/1999/xlink"><defs><circle id="path-1" cx="20" cy="20" r="20"/><filter x="-11.2%" y="-11.2%" width="122.5%" height="122.5%" filterUnits="objectBoundingBox" id="filter-3"><feGaussianBlur stdDeviation="4" in="SourceAlpha" result="shadowBlurInner1"/><feOffset dy="1" in="shadowBlurInner1" result="shadowOffsetInner1"/><feComposite in="shadowOffsetInner1" in2="SourceAlpha" operator="arithmetic" k2="-1" k3="1" result="shadowInnerInner1"/><feColorMatrix values="0 0 0 0 0.815620225 0 0 0 0 0.866734987 0 0 0 0 0.963853034 0 0 0 1 0" in="shadowInnerInner1"/></filter><path d="M20 40c11.046 0 20-8.954 20-20 0-4.63-1.573-8.891-4.213-12.28a20.052 20.052 0 0 0-8.704-6.43A19.955 19.955 0 0 0 20 0C8.954 0 0 8.954 0 20s8.954 20 20 20z" id="path-4"/><filter x="-202.5%" y="-202.5%" width="505%" height="505%" filterUnits="objectBoundingBox" id="filter-5"><feGaussianBlur stdDeviation="27" in="SourceGraphic"/></filter><filter x="-203.8%" y="-203.8%" width="507.5%" height="507.5%" filterUnits="objectBoundingBox" id="filter-6"><feOffset dy="1" in="SourceAlpha" result="shadowOffsetInner1"/><feComposite in="shadowOffsetInner1" in2="SourceAlpha" operator="arithmetic" k2="-1" k3="1" result="shadowInnerInner1"/><feColorMatrix values="0 0 0 0 0.876810213 0 0 0 0 0.91928945 0 0 0 0 1 0 0 0 1 0" in="shadowInnerInner1"/></filter><linearGradient x1="50%" y1="0%" x2="50%" y2="95.115%" id="linearGradient-7"><stop stop-color="#F0F5FF" offset="0%"/><stop stop-color="#DBE8FF" offset="100%"/></linearGradient><linearGradient x1="50%" y1="0%" x2="50%" y2="100%" id="linearGradient-8"><stop stop-color="#57A7FF" offset="0%"/><stop stop-color="#5660D9" offset="100%"/></linearGradient><radialGradient cx="50%" cy="43.566%" fx="50%" fy="43.566%" r="115.458%" gradientTransform="scale(1 .8) rotate(84.121 .44 .49)" id="radialGradient-9"><stop stop-color="#FFF" offset="0%"/><stop stop-color="#FFF" stop-opacity=".877" offset="100%"/></radialGradient><path d="M9.932 14.71c0-.637.538-1.155 1.201-1.155h.973c.698-.352.743-1.298.72-1.782-.755-.562-1.212-1.431-1.212-2.356 0-1.64 1.384-2.872 3.1-2.872.092 0 .194 0 .286.011v-3.5C15 2.473 14.508 2 13.902 2H4.098C3.492 2 3 2.473 3 3.056v12.888C3 16.527 3.492 17 4.098 17h5.834v-2.29zM5.494 4.52h5.88c.286 0 .514.22.514.495a.503.503 0 0 1-.514.496h-5.88a.503.503 0 0 1-.515-.496c0-.275.229-.495.515-.495zm2.482 6.086H5.494a.505.505 0 0 1-.515-.506.52.52 0 0 1 .515-.506h2.482a.505.505 0 1 1 0 1.012zm1.339-2.553H5.494a.503.503 0 0 1-.515-.495c0-.276.229-.496.515-.496h3.82c.287 0 .515.22.515.496a.503.503 0 0 1-.514.495z" id="path-10"/><filter x="-66.7%" y="-40%" width="233.3%" height="206.7%" filterUnits="objectBoundingBox" id="filter-11"><feMorphology radius="1" operator="dilate" in="SourceAlpha" result="shadowSpreadOuter1"/><feOffset dy="2" in="shadowSpreadOuter1" result="shadowOffsetOuter1"/><feGaussianBlur stdDeviation="2" in="shadowOffsetOuter1" result="shadowBlurOuter1"/><feComposite in="shadowBlurOuter1" in2="SourceAlpha" operator="out" result="shadowBlurOuter1"/><feColorMatrix values="0 0 0 0 0.807647723 0 0 0 0 0.877286837 0 0 0 0 0.946925951 0 0 0 1 0" in="shadowBlurOuter1"/></filter></defs><g id="页面1" stroke="none" stroke-width="1" fill="none" fill-rule="evenodd"><g id="我的" transform="translate(-213 -138)"><g id="合同" transform="translate(213 138)"><g id="编组-5"><mask id="mask-2" fill="#fff"><use xlink:href="#path-1"/></mask><g id="椭圆形"><use fill="#EEF6FF" xlink:href="#path-1"/><use fill="#000" filter="url(#filter-3)" xlink:href="#path-1"/></g><g id="椭圆形" filter="url(#filter-5)" mask="url(#mask-2)" fill="#000" fill-opacity="1"><use filter="url(#filter-6)" xlink:href="#path-4"/></g></g><g id="编组-6" transform="translate(10 10)"><g id="合同" fill-rule="nonzero"><g id="形状"><use fill="#000" filter="url(#filter-11)" xlink:href="#path-10"/><path stroke="url(#radialGradient-9)" d="M10.432 14.71v2.79H4.098c-.878 0-1.598-.693-1.598-1.556V3.056c0-.863.72-1.556 1.598-1.556h9.804c.878 0 1.598.693 1.598 1.556V7.12l-.56-.067a1.104 1.104 0 0 0-.097-.007 4.244 4.244 0 0 0-.129 0c-1.468 0-2.6 1.035-2.6 2.371 0 .757.375 1.482 1.01 1.954l.19.142.012.236c.047 1-.19 1.847-.995 2.253l-.106.053h-1.092c-.391 0-.7.298-.7.656zM5.494 5.02h5.88c.014 0 .014 0 .014-.005s0-.004-.014-.004h-5.88c-.014 0-.015-.001-.015.004 0 .006 0 .005.015.005zm-.015 5.081c0 .005.002.005.015.005h2.482a.022.022 0 0 0 .015-.006c0-.006 0-.006-.015-.006H5.513c-.023 0-.032.006-.034.006zm3.836-2.548H5.494c-.014 0-.015 0-.015.005s0 .004.015.004h3.82c.015 0 .015.001.015-.004 0-.006 0-.005-.014-.005z" fill="url(#linearGradient-8)" fill-rule="evenodd"/></g></g><path d="M13 17.799v-1.917c0-.116.103-.2.217-.2h.991l.08-.033c1.745-.656 1.54-2.7 1.482-3.102l-.034-.212-.194-.106c-.57-.317-.923-.889-.923-1.493 0-.963.844-1.736 1.87-1.736h.136c.81.053 1.505.604 1.688 1.345.17.71-.137 1.44-.776 1.842l-.182.106-.023.201c-.08.582-.216 2.52 1.47 3.155l.092.032h.89c.125 0 .216.095.216.201v1.896c0 .2-.08.222-.182.222h-6.601c-.126 0-.217-.095-.217-.201z" id="路径" stroke="#567DE8" fill="#FFF"/></g></g></g></g></svg>