<svg width="77" height="37" viewBox="0 0 77 37" xmlns="http://www.w3.org/2000/svg" xmlns:xlink="http://www.w3.org/1999/xlink"><defs><linearGradient x1="-49.561%" y1="35.892%" y2="53.442%" id="a"><stop stop-color="#EBE9FF" offset="0%"/><stop stop-color="#C9D1FF" offset="100%"/></linearGradient><filter x="-40%" y="-35.1%" width="180%" height="167.6%" filterUnits="objectBoundingBox" id="b"><feOffset dy="2" in="SourceAlpha" result="shadowOffsetOuter1"/><feGaussianBlur stdDeviation="2" in="shadowOffsetOuter1" result="shadowBlurOuter1"/><feColorMatrix values="0 0 0 0 0 0 0 0 0 0 0 0 0 0 0 0 0 0 0.5 0" in="shadowBlurOuter1" result="shadowMatrixOuter1"/><feMerge><feMergeNode in="shadowMatrixOuter1"/><feMergeNode in="SourceGraphic"/></feMerge></filter><path d="M13 22c7.18 0 13-3.82 13-11S20.18 0 13 0 0 3.82 0 11c0 4.182 1.975 7.225 5.044 9.036.597.353.053 3.765.726 4.023C7.577 24.753 10.816 22 13 22z" id="c"/><circle id="e" cx="10.5" cy="10.5" r="15.5"/><filter x="-14.5%" y="-14.5%" width="129%" height="129%" filterUnits="objectBoundingBox" id="f"><feGaussianBlur stdDeviation=".5" in="SourceAlpha" result="shadowBlurInner1"/><feOffset dx="8" dy="-1" in="shadowBlurInner1" result="shadowOffsetInner1"/><feComposite in="shadowOffsetInner1" in2="SourceAlpha" operator="arithmetic" k2="-1" k3="1" result="shadowInnerInner1"/><feColorMatrix values="0 0 0 0 0.679489357 0 0 0 0 0.679489357 0 0 0 0 0.679489357 0 0 0 0.5 0" in="shadowInnerInner1"/></filter><rect id="g" x="6" y="8" width="18" height="9" rx="3"/><filter x="-11.1%" y="-22.2%" width="122.2%" height="144.4%" filterUnits="objectBoundingBox" id="h"><feGaussianBlur stdDeviation="1.5" in="SourceAlpha" result="shadowBlurInner1"/><feOffset dy="1" in="shadowBlurInner1" result="shadowOffsetInner1"/><feComposite in="shadowOffsetInner1" in2="SourceAlpha" operator="arithmetic" k2="-1" k3="1" result="shadowInnerInner1"/><feColorMatrix values="0 0 0 0 0 0 0 0 0 0 0 0 0 0 0 0 0 0 0.5 0" in="shadowInnerInner1"/></filter></defs><g fill="none" fill-rule="evenodd"><rect fill="url(#a)" y="5" width="77" height="25" rx="12.5"/><g filter="url(#b)" transform="translate(4)"><g transform="translate(2 3)"><mask id="d" fill="#fff"><use xlink:href="#c"/></mask><use fill="#8A8A8A" xlink:href="#c"/><g mask="url(#d)"><use fill="#FFF" xlink:href="#e"/><use fill="#000" filter="url(#f)" xlink:href="#e"/></g></g><g fill-rule="nonzero"><path d="M19.514 24.9c-.066.038-.127.077-.188.116.061-.039.127-.077.188-.117zm.84-.488c-.065.04-.124.081-.187.117.064-.04.124-.082.187-.117zm-1.22.785c-.058.043-.13.075-.188.118.058-.043.115-.078.188-.118zm.732-.522c-.064.037-.13.079-.187.117.066-.042.123-.08.187-.117zm-.75.515c.023-.027.041-.039.064-.066-.038.024-.06.05-.064.066zm.147-.109c.041-.039.063-.066.104-.104a1.441 1.441 0 0 0-.104.104zm-.477.407c.019-.012.026-.043.044-.054-.022.027-.04.038-.044.054zm1.051-.787c.06-.043.128-.074.188-.117-.071.04-.13.083-.188.117zm.504-.255c.06-.043.128-.073.188-.117-.06.044-.117.077-.188.117zm-.218.102c.023-.027.057-.035.079-.062-.022.027-.041.038-.079.062zm-1.187.788s.003-.015.018-.011l-.018.011zm1.683-1.003a.73.73 0 0 0 .112-.135c-.027.047-.054.095-.112.135zm-1.415.783c.058-.044.098-.08.157-.124-.043.047-.1.08-.157.124z" fill="#BD3246"/><path d="M19.085 25.206c.057-.037.116-.083.172-.12-.056.037-.113.074-.172.12zm-.24.213c.057-.043.098-.081.156-.124-.058.043-.116.086-.157.124zm-.075.095c.025-.042.07-.096.096-.138a.468.468 0 0 1-.096.138zm1.771-1.142a.64.64 0 0 0 .188-.117.472.472 0 0 1-.188.117zm-.127.056c.06-.038.124-.08.188-.117-.069.036-.129.079-.188.117zm-.402.188c.065-.039.122-.079.187-.117-.065.038-.122.078-.187.117zm-.107.058l.172-.12c-.045.056-.117.093-.172.12zm-.183.095c-.068.036-.128.08-.188.118.061-.044.128-.08.188-.118z" fill="#BD3246"/><path d="M19.503 24.89c.019-.012.022-.027.041-.039-.019.012-.022.027-.04.039zm.118-.081c.056-.036.113-.073.172-.12-.06.047-.116.084-.172.12zm.916-.565c.027-.147-.234-.375-.688-.595.453.222.715.448.688.595zm-1.456 1.024c-.069.038-.128.077-.187.117.059-.04.118-.08.187-.117zm.353-.312l-.188.117c.064-.044.125-.078.188-.117zm.795-.523l-.187.117c.066-.04.13-.074.187-.117zm.402-.295a.532.532 0 0 1-.05.148c.027-.047.038-.098.05-.148zm-.23.202c-.062.036-.126.081-.187.117.071-.033.123-.072.187-.117zm-1.208.821l-.188.117c.056-.037.122-.077.188-.117zm.726-.544c-.064.034-.13.075-.187.117.057-.042.121-.076.187-.117zm-1.324 1.09z" fill="#56021C" opacity=".2"/><path d="M18.524 25.82l.187-.116a3.756 3.756 0 0 0-.187.117z" fill="#B52C46"/><path d="M18.524 25.82l.187-.116a3.756 3.756 0 0 0-.187.117z" fill="#56021C" opacity=".2"/><path d="M19.214 25.036c-.065.036-.13.073-.187.117.066-.042.122-.08.187-.117z" fill="#B52C46"/><path d="M19.214 25.036c-.065.036-.13.073-.187.117.066-.042.122-.08.187-.117z" fill="#56021C" opacity=".2"/><path d="M18.94 25.368c-.06.041-.13.08-.188.117.058-.037.118-.078.187-.117z" fill="#B52C46"/><path d="M18.94 25.368c-.06.041-.13.08-.188.117.058-.037.118-.078.187-.117z" fill="#56021C" opacity=".2"/><path d="M19.824 24.467c-.065.036-.13.072-.188.117.056-.038.123-.08.188-.117z" fill="#B52C46"/><path d="M19.824 24.467c-.065.036-.13.072-.188.117.056-.038.123-.08.188-.117z" fill="#56021C" opacity=".2"/><path d="M19.41 24.788c.058-.045.098-.08.157-.124-.055.03-.099.079-.157.124z" fill="#B52C46"/><path d="M19.41 24.788c.058-.045.098-.08.157-.124-.055.03-.099.079-.157.124z" fill="#56021C" opacity=".2"/><path d="M19.292 24.88c.067-.04.123-.083.188-.116-.065.033-.121.076-.188.117z" fill="#B52C46"/><path d="M19.292 24.88c.067-.04.123-.083.188-.116-.065.033-.121.076-.188.117z" fill="#56021C" opacity=".2"/><path d="M16.907 24.48c-.71.075-.36.69-.36.69s-.715.125-.39.713c.217.394 1.2.2 1.404-.187a.765.765 0 0 0 .074-.29l-.083-.042a.054.054 0 0 1-.023-.073l.024-.05a.054.054 0 0 1 .073-.023l.004.003c-.039-.385-.274-.787-.723-.74z" fill="#69021D"/><path d="M17.556 25.242l-.027.049c-.015.026-.002.06.03.074l.1.046a.838.838 0 0 0-.013-.186l-.005-.004c-.033-.015-.07-.006-.085.02z" fill="#69021D"/><path d="M4.21 16.776l-.025.014a.182.182 0 0 0-.067.072.296.296 0 0 0-.032.028l-.021.018c-.93.78-1.443 1.799-1.516 3.017-.079.155.096.418.395.59l1.006.578 4.558 2.616 8.328 4.78c.48.275.889.35 1.003.2a.16.16 0 0 0 .032-.117v-.05a9.077 9.077 0 0 1-.005-.255l.005-.181c.004-.095.01-.188.017-.282l.018-.174a5.246 5.246 0 0 1 .074-.439 3.783 3.783 0 0 1 .1-.38 4.131 4.131 0 0 1 .31-.75c.038-.072.079-.143.12-.21.004-.01.011-.018.016-.027l.07-.112c.043-.065.088-.127.135-.192.003-.001.004-.006.007-.008l.015-.022c.019-.025.04-.05.057-.074l.029-.036s0-.002.003-.002l.056-.07c.01-.015.024-.027.035-.042.02-.023.037-.044.058-.066.003-.005.006-.006.007-.011l.03-.033c.02-.02.038-.044.058-.065l.027-.029.016-.016.06-.061c.032-.033.064-.066.1-.098l.006-.006c.015-.014.029-.028.044-.04l.06-.056.026-.021.028-.026c.022-.018.044-.038.063-.056l.053-.045a.47.47 0 0 1 .04-.034l.028-.023c.019-.014.034-.028.053-.043l.06-.046c.004-.005.01-.006.013-.01l.051-.038c.028-.022.058-.042.087-.06l.044-.03a2.436 2.436 0 0 1 .133-.09.212.212 0 0 0 .052-.046c.007-.01.015-.021.02-.033.004-.009.006-.018.009-.028v-.002c.029-.146-.158-.357-.492-.55-.02-.012-.04-.021-.06-.034a2.582 2.582 0 0 0-.2-.098L7.288 17.955l-.712-.325-.174-.08-1.571-.716-.005-.001c-.242-.103-.48-.123-.616-.057zm13.42 8.445c.006.062.009.125.005.184a.723.723 0 0 1-.074.291c-.205.387-1.187.58-1.404.187-.325-.588.39-.714.39-.714s-.35-.614.36-.689c.449-.046.684.356.723.741zm-5.44-4.806l-.695-.331.695.33zm-.7-.332l-.198-.206.198.206z" fill="#D21C36"/><path d="M4.185 16.79a.182.182 0 0 0-.067.072.296.296 0 0 0-.032.028l-.021.018c.496.237 1.213.57 1.94.886.362.156.727.31 1.067.445.104.04.205.08.302.114 1.32.49 2.621 1.031 3.894 1.628 2.516 1.18 5.963 2.865 6.938 4.168.07.091.123.181.166.266.055.11.088.219.097.32a.635.635 0 0 1-.009.18 1.722 1.722 0 0 0 .007.73c.016.061.035.12.056.178l.071-.111c.043-.065.087-.128.135-.192.003-.002.004-.007.007-.008l.015-.022c.018-.026.04-.051.057-.075l.028-.036s0-.002.003-.001c.018-.024.039-.047.057-.07.01-.015.023-.027.034-.042l.058-.067c.004-.004.007-.006.008-.01l.03-.034c.02-.02.038-.044.057-.064l.027-.03c.007-.005.01-.01.016-.016l.06-.061c.032-.033.065-.065.1-.097l.006-.006c.016-.014.03-.029.045-.04l.06-.056.025-.022a.357.357 0 0 0 .029-.026l.063-.056.053-.045a.47.47 0 0 1 .04-.033l.028-.024c.018-.013.034-.027.053-.043l.06-.046c.004-.004.01-.006.013-.01l.051-.038c.027-.021.057-.042.087-.06l.044-.03a2.436 2.436 0 0 1 .133-.09.212.212 0 0 0 .051-.045c.008-.011.015-.022.02-.033.005-.01.007-.019.01-.028v-.003c.029-.146-.158-.357-.492-.55a3.462 3.462 0 0 0-.262-.135L7.284 17.952l-.712-.325-.174-.08-1.571-.716-.005-.002c-.253-.108-.508-.122-.637-.039z" fill="#56021C" opacity=".2"/></g><path d="M8.144 31.974a.2.2 0 0 1 .114.054.119.119 0 0 1 .027.072l1.71-1.605c-.054-.035-.11-.068-.166-.101l-1.685 1.58zm3.107-.37l-1.478 1.387c.04.01.077.027.099.051.018.019.027.052.03.088l1.467-1.375-.093-.121c-.01-.01-.017-.021-.025-.03zm.768 1.303c-.009-.023-.02-.043-.026-.064l-.902.849c.04.01.077.026.099.05.018.02.027.052.03.088l.85-.799-.014-.036c-.012-.028-.022-.058-.037-.088zm-3.427-3.063c-.02-.006-.035-.013-.055-.02a.216.216 0 0 1-.116-.081l-1.749 1.643c-.083-.023-.186-.01-.21.09-.039.147.11.122.11.122s-.028.151.114.131c.06-.01.097-.102.097-.186l1.81-1.7zm.475.173l-.196-.077-2.069 1.943c-.077-.017-.171.003-.191.091-.039.148.11.122.11.122s-.028.152.114.132c.067-.01.101-.12.095-.205l2.137-2.006zm.481.221c-.06-.032-.12-.06-.182-.088L7.48 31.918c-.077-.016-.171.004-.191.092-.038.148.11.122.11.122s-.028.151.114.132c.067-.01.101-.12.095-.205l1.94-1.82z" fill="#B52C46" fill-rule="nonzero"/><path d="M8.258 32.028a.2.2 0 0 0-.114-.054c-.074-.01-.155.01-.176.095-.039.147.11.122.11.122s-.028.151.113.131c.072-.01.107-.133.094-.222a.13.13 0 0 0-.027-.072zm2.116-1.273a4.389 4.389 0 0 0-.155-.115l-1.873 1.756c-.071-.01-.148.015-.167.097-.039.147.11.122.11.122s-.028.151.113.131c.073-.013.11-.142.093-.23l1.88-1.761zm.364.303c-.046-.043-.094-.084-.142-.125l-2.048 1.921c-.071-.009-.148.016-.168.098-.038.147.11.122.11.122s-.027.15.114.13c.073-.013.11-.141.093-.23l2.04-1.916zm-.866 1.984a.193.193 0 0 0-.1-.05c-.076-.017-.17.003-.19.091-.039.148.11.122.11.122s-.028.151.113.132c.068-.01.102-.12.096-.205a.156.156 0 0 0-.03-.09zm1.997-.466l-.02-.04a.87.87 0 0 0-.048-.088l-.024-.046-1.477 1.384c-.078-.02-.178 0-.201.092-.039.148.11.122.11.122s-.028.151.113.132c.064-.01.101-.114.098-.197l1.45-1.359zm-.8-1.185a4.357 4.357 0 0 0-.13-.138L9.227 32.86c-.077-.017-.171.003-.191.092-.039.147.11.122.11.122s-.028.15.113.13c.068-.01.102-.119.096-.204l1.714-1.609zm.566.76l-.028-.045-.058-.092-.018-.025-1.433 1.345c-.078-.017-.172.003-.192.092-.038.147.11.122.11.122s-.027.15.114.131c.067-.01.101-.12.096-.205l1.41-1.323zm.749 1.864a.246.246 0 0 1-.03-.074 1.415 1.415 0 0 0-.033-.126l-1.393 1.308c-.077-.017-.171.003-.191.092-.038.147.11.122.11.122s-.028.15.114.13c.067-.01.101-.119.095-.204l1.328-1.248zm-.152-.52a1.2 1.2 0 0 0-.026-.085.52.52 0 0 0-.026-.075l-.015-.04-1.24 1.167c-.077-.016-.171.004-.191.092-.039.147.11.122.11.122s-.028.151.113.131c.068-.01.102-.12.096-.204l1.18-1.109zm-1.011.335c-.004-.036-.013-.069-.031-.087a.193.193 0 0 0-.1-.051c-.076-.016-.17.003-.19.092-.039.147.11.122.11.122s-.028.15.113.131c.07-.013.103-.122.098-.207z" fill="#B52C46" fill-rule="nonzero"/><path d="M11.885 33.077c-.015-.087-.034-.169-.053-.25.019.081.034.168.053.25zm.198 1.11c-.018-.087-.04-.168-.053-.251.018.086.04.167.053.25zm-.372-1.643c-.024-.08-.03-.17-.053-.25.023.08.04.155.053.25zm.279 1.006a3.418 3.418 0 0 0-.053-.25c.02.088.039.165.053.25zm-.264-1.021c.021.034.026.06.047.094-.01-.05-.031-.085-.047-.094zm.06.202c.027.06.047.095.073.155a1.672 1.672 0 0 0-.072-.155zm-.253-.68c.005.024.036.044.041.07-.02-.036-.026-.06-.041-.07zm.44 1.457c.023.082.03.17.053.251-.015-.093-.038-.175-.053-.25zm.078.65c.024.083.029.17.053.251a2.221 2.221 0 0 1-.053-.25zm-.024-.277c.02.035.016.075.036.11a.318.318 0 0 1-.036-.11zm-.389-1.608s.015.01.006.025l-.006-.025zm.426 2.234c.031.063.062.127.103.175a.427.427 0 0 1-.103-.175zm-.292-1.854c.025.08.049.14.073.22-.034-.065-.048-.14-.073-.22z" fill="#BD3246" fill-rule="nonzero"/><path d="M11.72 32.488c.019.076.046.159.064.235-.018-.076-.036-.153-.063-.235zm-.135-.347c.024.08.049.14.073.22-.024-.08-.048-.16-.073-.22zm-.075-.12c.036.046.077.116.113.16a.543.543 0 0 1-.113-.16zm.542 2.385a.743.743 0 0 0 .053.25.547.547 0 0 1-.053-.25zm-.01-.16c.018.079.037.166.053.25-.012-.089-.035-.171-.054-.25zm-.045-.514c.016.086.037.165.053.25-.016-.085-.037-.164-.053-.25zm-.021-.139l.063.236c-.044-.072-.055-.166-.063-.236zm-.032-.238c-.012-.088-.035-.17-.053-.25.023.083.036.17.053.25z" fill="#BD3246" fill-rule="nonzero"/><path d="M11.9 33.07c.005.024.02.034.026.06-.005-.026-.02-.036-.026-.06zm.041.16c.018.076.035.152.064.235-.03-.083-.046-.16-.064-.235zm.253 1.222c.15.088.502-.106.921-.514-.422.406-.772.602-.92.514zm-.539-1.993c-.013-.09-.033-.17-.053-.25.02.08.04.16.053.25zm.2.508l-.053-.25c.023.086.036.166.053.25zm.255 1.075l-.054-.251c.019.088.03.171.054.25zm.162.555zm-.129-.331c-.015-.082-.039-.17-.053-.25.008.09.029.162.053.25zm-.415-1.643l-.054-.25c.019.075.036.162.054.25zm.304 1.008a1.673 1.673 0 0 0-.053-.25c.023.078.035.162.053.25zm-.663-1.876z" fill="#56021C" fill-rule="nonzero" opacity=".2"/><path d="M11.273 31.632l.054.251a4.358 4.358 0 0 0-.054-.25z" fill="#B52C46" fill-rule="nonzero"/><path d="M11.273 31.632l.054.251a4.358 4.358 0 0 0-.054-.25z" fill="#56021C" fill-rule="nonzero" opacity=".2"/><path d="M11.856 32.696c-.014-.085-.029-.171-.054-.25.02.088.04.165.054.25z" fill="#B52C46" fill-rule="nonzero"/><path d="M11.856 32.696c-.014-.085-.029-.171-.054-.25.02.088.04.165.054.25z" fill="#56021C" fill-rule="nonzero" opacity=".2"/><path d="M11.602 32.265c-.021-.082-.036-.173-.053-.251.017.078.038.16.053.25z" fill="#B52C46" fill-rule="nonzero"/><path d="M11.602 32.265c-.021-.082-.036-.173-.053-.251.017.078.038.16.053.25z" fill="#56021C" fill-rule="nonzero" opacity=".2"/><path d="M12.233 33.586a2.905 2.905 0 0 1 0 0z" fill="#B52C46" fill-rule="nonzero"/><path d="M12.233 33.586a2.905 2.905 0 0 1 0 0z" fill="#56021C" fill-rule="nonzero" opacity=".2"/><path d="M12.048 33.008c.026.082.048.139.073.22-.012-.072-.047-.138-.073-.22z" fill="#B52C46" fill-rule="nonzero"/><path d="M12.048 33.008c.026.082.048.139.073.22-.012-.072-.047-.138-.073-.22z" fill="#56021C" fill-rule="nonzero" opacity=".2"/><path d="M11.993 32.843c.018.089.043.167.054.25-.01-.083-.036-.161-.054-.25z" fill="#B52C46" fill-rule="nonzero"/><path d="M11.993 32.843c.018.089.043.167.054.25-.01-.083-.036-.161-.054-.25z" fill="#56021C" fill-rule="nonzero" opacity=".2"/><path d="M13.376 30.401c.2-.802-.608-.665-.608-.665s.147-.83-.623-.709c-.516.081-.693 1.229-.353 1.605.071.077.17.144.287.197l.079-.074a.062.062 0 0 1 .088.003l.045.046a.062.062 0 0 1-.004.089l-.005.003c.435.11.967.013 1.094-.495z" fill="#69021D" fill-rule="nonzero"/><path d="M12.29 30.807l-.044-.049c-.023-.027-.064-.025-.093.004l-.09.091a.972.972 0 0 0 .209.059l.006-.004c.029-.03.034-.074.011-.101z" fill="#69021D" fill-rule="nonzero"/><path d="M26.812 19.618c-.003-.011-.003-.022-.005-.033l-.013-.039a.21.21 0 0 0-.04-.063.344.344 0 0 0-.018-.045l-.01-.03c-.482-1.323-1.389-2.287-2.688-2.85-.138-.147-.494-.061-.8.196l-1.03.868-4.659 3.93-8.513 7.182c-.492.414-.735.83-.618 1.014a.185.185 0 0 0 .116.082l.055.019c.095.03.185.063.278.096l.197.077c.101.042.2.086.3.13l.183.089a6.085 6.085 0 0 1 .449.254c.073.048.147.096.22.146.052.038.103.074.154.115.076.055.15.117.223.178.047.04.095.082.14.125a4.28 4.28 0 0 1 .332.333c.063.069.124.142.182.213l.022.028.094.122c.054.072.105.145.156.222 0 .004.005.007.006.011l.018.025.058.092.028.045s.003.002.001.004l.054.09c.012.017.02.036.032.054l.05.09c.003.005.004.009.008.012l.024.046c.015.03.033.059.048.088l.02.04.012.025.044.09c.022.048.045.096.066.147 0 .004.003.005.004.01.009.022.02.042.026.063l.037.089.014.036.017.041c.01.03.023.063.035.09l.029.077a.544.544 0 0 1 .02.057l.015.04c.007.025.016.047.026.074l.026.084c.003.006.002.012.006.018l.02.07c.013.04.024.08.032.12l.015.06a2.826 2.826 0 0 1 .045.18.246.246 0 0 0 .03.074.25.25 0 0 0 .028.035c.007.008.017.014.026.02l.003.002c.148.09.452-.03.794-.318l.06-.052c.063-.054.126-.114.188-.179l10.821-11.021.637-.648.156-.158 1.404-1.428.003-.005c.209-.222.325-.474.307-.649zm-14.53 11.278a1.39 1.39 0 0 1-.203-.067.839.839 0 0 1-.287-.197c-.34-.376-.163-1.524.353-1.605.77-.12.623.71.623.71s.808-.138.608.664c-.127.508-.66.605-1.094.495zm7.397-4.023l.637-.627-.637.627zm.64-.631l.303-.134c-.1.043-.201.088-.303.134z" fill="#FF3350" fill-rule="nonzero"/><path d="M26.807 19.585a.21.21 0 0 0-.052-.101.344.344 0 0 0-.019-.046l-.01-.03a71.319 71.319 0 0 0-1.736 1.763c-.314.332-.628.67-.908.987a10.49 10.49 0 0 0-.245.283 58.987 58.987 0 0 1-3.32 3.599c-2.284 2.275-5.488 5.363-7.295 5.909a2.01 2.01 0 0 1-.356.076 1.05 1.05 0 0 1-.388-.022.737.737 0 0 1-.19-.08 1.998 1.998 0 0 0-.8-.283 2.027 2.027 0 0 0-.217-.01l.093.122c.055.073.105.146.156.223.001.004.006.007.007.011l.017.025c.021.03.04.063.059.092l.028.045s.002.002 0 .004c.019.029.036.06.054.089.012.018.02.037.032.055l.05.09c.003.005.004.009.009.012.007.015.017.03.024.046.015.03.033.058.047.088l.021.04.012.025.043.089c.023.048.045.097.066.147.001.004.004.006.004.01.01.023.02.043.026.064l.037.088.014.036.017.042c.01.03.024.062.036.09l.028.076a.544.544 0 0 1 .02.057l.015.04.026.074.026.085c.004.005.003.012.006.017l.021.071c.013.039.023.08.032.119l.015.06.013.052c.01.041.022.086.031.129a.246.246 0 0 0 .03.073c.009.013.018.025.028.035a.138.138 0 0 0 .027.021l.002.002c.148.09.452-.03.795-.318.081-.069.165-.146.251-.232l10.822-11.022.636-.647.157-.158 1.404-1.428.003-.005c.218-.233.335-.505.296-.68z" fill="#56021C" fill-rule="nonzero" opacity=".2"/><use fill="#626074" xlink:href="#g"/><use fill="#000" filter="url(#h)" xlink:href="#g"/><path d="M2.308 14C.769 4.667 5 0 15 0s14.23 4.667 12.692 14" stroke="#3E8AFF" stroke-width="2" stroke-linecap="square"/><g stroke="#85ACFF" stroke-linecap="round" stroke-linejoin="round"><path d="M12.41 12.004c-.302-.363-.772-.545-1.41-.545-.638 0-1.108.182-1.41.545M20.41 12.004c-.302-.363-.772-.545-1.41-.545-.638 0-1.108.182-1.41.545"/></g><rect fill="#0058DF" y="11" width="4" height="9" rx="2"/><rect fill="#0058DF" x="26" y="11" width="4" height="9" rx="2"/></g><text font-family="PingFangSC-Semibold, PingFang SC" font-size="12" font-weight="500" fill="#000"><tspan x="40" y="21">客服</tspan></text></g></svg>