<svg width="40" height="40" viewBox="0 0 40 40" xmlns="http://www.w3.org/2000/svg" xmlns:xlink="http://www.w3.org/1999/xlink"><defs><circle id="path-1" cx="20" cy="20" r="20"/><filter x="-11.2%" y="-11.2%" width="122.5%" height="122.5%" filterUnits="objectBoundingBox" id="filter-3"><feGaussianBlur stdDeviation="4" in="SourceAlpha" result="shadowBlurInner1"/><feOffset dy="1" in="shadowBlurInner1" result="shadowOffsetInner1"/><feComposite in="shadowOffsetInner1" in2="SourceAlpha" operator="arithmetic" k2="-1" k3="1" result="shadowInnerInner1"/><feColorMatrix values="0 0 0 0 0.815620225 0 0 0 0 0.866734987 0 0 0 0 0.963853034 0 0 0 1 0" in="shadowInnerInner1"/></filter><path d="M20 40c11.046 0 20-8.954 20-20 0-4.63-1.573-8.891-4.213-12.28a20.052 20.052 0 0 0-8.704-6.43A19.955 19.955 0 0 0 20 0C8.954 0 0 8.954 0 20s8.954 20 20 20z" id="path-4"/><filter x="-202.5%" y="-202.5%" width="505%" height="505%" filterUnits="objectBoundingBox" id="filter-5"><feGaussianBlur stdDeviation="27" in="SourceGraphic"/></filter><filter x="-203.8%" y="-203.8%" width="507.5%" height="507.5%" filterUnits="objectBoundingBox" id="filter-6"><feOffset dy="1" in="SourceAlpha" result="shadowOffsetInner1"/><feComposite in="shadowOffsetInner1" in2="SourceAlpha" operator="arithmetic" k2="-1" k3="1" result="shadowInnerInner1"/><feColorMatrix values="0 0 0 0 0.876810213 0 0 0 0 0.91928945 0 0 0 0 1 0 0 0 1 0" in="shadowInnerInner1"/></filter><linearGradient x1="50%" y1="0%" x2="50%" y2="100%" id="linearGradient-7"><stop stop-color="#57A7FF" offset="0%"/><stop stop-color="#5660D9" offset="100%"/></linearGradient><radialGradient cx="50%" cy="43.566%" fx="50%" fy="43.566%" r="92.743%" gradientTransform="scale(.9375 1) rotate(82.182 .517 .455)" id="radialGradient-8"><stop stop-color="#FFF" offset="0%"/><stop stop-color="#FFF" stop-opacity=".877" offset="100%"/></radialGradient><path d="M26.71 19.808v8.509a.59.59 0 0 1-.295.517c-.091.012-.193.046-.284.046a.597.597 0 0 1-.307-.092l-2.464-1.54-2.544 1.552a.568.568 0 0 1-.602 0l-2.442-1.541-2.555 1.552a.58.58 0 0 1-.58.012.586.586 0 0 1-.294-.506v-8.509h-1.011c-.67 0-1.227-.551-1.227-1.241v-4.22c0-.678.545-1.242 1.227-1.242H27.72c.67 0 1.226.552 1.226 1.242v4.22c-.011.678-.556 1.241-1.226 1.241h-1.01zm0-1.172h1.01c.035 0 .069-.035.069-.07v-4.219c0-.034-.034-.069-.068-.069H13.33c-.033 0-.067.035-.067.069v4.22c0 .034.034.069.068.069h1.01v-2.047c0-.322.262-.586.58-.586H26.13c.318 0 .58.264.58.586v2.047zm-2.737.931H17.08a.585.585 0 0 1-.58-.586c0-.322.262-.586.58-.586h6.893a.585.585 0 1 1 0 1.173zm0 2.656H17.08a.585.585 0 0 1-.58-.586c0-.322.262-.587.58-.587h6.893c.318 0 .58.265.58.587a.585.585 0 0 1-.58.586zm0 3H17.08a.585.585 0 0 1-.58-.586c0-.322.262-.587.58-.587h6.893c.318 0 .58.265.58.587a.585.585 0 0 1-.58.586z" id="path-9"/><filter x="-47.5%" y="-38%" width="195%" height="201.6%" filterUnits="objectBoundingBox" id="filter-10"><feMorphology radius="1" operator="dilate" in="SourceAlpha" result="shadowSpreadOuter1"/><feOffset dy="2" in="shadowSpreadOuter1" result="shadowOffsetOuter1"/><feGaussianBlur stdDeviation="2" in="shadowOffsetOuter1" result="shadowBlurOuter1"/><feComposite in="shadowBlurOuter1" in2="SourceAlpha" operator="out" result="shadowBlurOuter1"/><feColorMatrix values="0 0 0 0 0.807647723 0 0 0 0 0.877286837 0 0 0 0 0.946925951 0 0 0 1 0" in="shadowBlurOuter1"/></filter></defs><g id="页面1" stroke="none" stroke-width="1" fill="none" fill-rule="evenodd"><g id="我的" transform="translate(-302 -138)"><g id="发票" transform="translate(302 138)"><g id="编组-5" stroke-width="1" fill-rule="evenodd"><mask id="mask-2" fill="#fff"><use xlink:href="#path-1"/></mask><g id="椭圆形"><use fill="#F6F6F6" xlink:href="#path-1"/><use fill="#000" filter="url(#filter-3)" xlink:href="#path-1"/></g><g id="椭圆形" filter="url(#filter-5)" mask="url(#mask-2)" fill="#000" fill-opacity="1"><use filter="url(#filter-6)" xlink:href="#path-4"/></g></g><g id="形状结合" fill-rule="nonzero"><use fill="#000" filter="url(#filter-10)" xlink:href="#path-9"/><path stroke="url(#radialGradient-8)" d="M27.21 20.308v8.009c0 .396-.208.758-.548.952l-.184.061a.933.933 0 0 0-.071.014l-.032.007c-.093.02-.162.03-.244.03-.198 0-.404-.063-.572-.169l-2.202-1.377-2.274 1.387a1.068 1.068 0 0 1-1.136 0l-2.18-1.375-2.303 1.399a1.078 1.078 0 0 1-1.074.011 1.086 1.086 0 0 1-.547-.94v-8.009h-.511c-.951 0-1.727-.78-1.727-1.741v-4.22c0-.956.771-1.742 1.727-1.742H27.72c.95 0 1.726.78 1.726 1.742v4.228c-.016.951-.783 1.733-1.726 1.733h-.51zm0-2.172h.079v-3.358H13.764v3.358h.079v-1.547c0-.597.483-1.086 1.079-1.086H26.13c.595 0 1.08.49 1.08 1.086v1.547zm-3.237.931c.04 0 .08-.039.08-.086 0-.047-.04-.086-.08-.086H17.08c-.04 0-.08.039-.08.086 0 .047.04.086.08.086h6.893zm0 2.656c.04 0 .08-.039.08-.086 0-.047-.04-.087-.08-.087H17.08c-.04 0-.08.04-.08.087 0 .047.04.086.08.086h6.893zm0 3c.04 0 .08-.039.08-.086 0-.047-.04-.087-.08-.087H17.08c-.04 0-.08.04-.08.087 0 .047.04.086.08.086h6.893z" fill="url(#linearGradient-7)" fill-rule="evenodd"/></g></g></g></g></svg>