<svg width="25" height="25" viewBox="0 0 25 25" xmlns="http://www.w3.org/2000/svg"><defs><linearGradient x1="-49.561%" y1="-67.628%" x2="134.634%" y2="126.98%" id="a"><stop stop-color="#FFF7D3" offset="0%"/><stop stop-color="#E8D177" offset="100%"/></linearGradient></defs><path d="M21.769 2c.89 0 1.631.734 1.631 1.652v5.612c-.015.902-.74 1.651-1.631 1.651h-1.345v11.316c0 .29-.15.55-.392.688-.121.016-.257.062-.378.062a.793.793 0 0 1-.408-.123L15.97 20.81l-3.384 2.065a.756.756 0 0 1-.8 0l-3.248-2.05L5.14 22.89a.77.77 0 0 1-.77.015.78.78 0 0 1-.393-.673l-.001-11.316H2.631A1.644 1.644 0 0 1 1 9.264V3.652C1 2.749 1.725 2 2.631 2H21.77zm0 1.56H2.63c-.045 0-.09.046-.09.092v5.612c0 .046.045.091.09.091h1.344V6.633c0-.428.348-.78.77-.78h14.91c.422 0 .77.352.77.78l-.001 2.722h1.345c.045 0 .09-.045.09-.091V3.652c0-.046-.045-.092-.09-.092zm-4.985 7.034H7.616a.778.778 0 0 1-.77-.78c0-.428.347-.78.77-.78h9.168c.423 0 .77.352.77.78 0 .429-.347.78-.77.78zm0 3.533H7.616a.778.778 0 0 1-.77-.78c0-.428.347-.78.77-.78h9.168c.423 0 .77.352.77.78 0 .428-.347.78-.77.78zm0 3.99H7.616a.778.778 0 0 1-.77-.78c0-.428.347-.78.77-.78h9.168c.423 0 .77.352.77.78 0 .428-.347.78-.77.78z" fill="url(#a)" fill-rule="evenodd"/></svg>