<svg width="16" height="16" viewBox="0 0 16 16" xmlns="http://www.w3.org/2000/svg"><g fill="#3C3B3C" fill-rule="nonzero"><path d="M14.215 8.084l-2.553-2.308a.53.53 0 0 0-.716 0 .418.418 0 0 0 0 .646l1.686 1.524H7.728c-.306 0-.51.184-.51.461 0 .278.204.462.51.462h4.904l-1.686 1.524a.418.418 0 0 0 0 .646.487.487 0 0 0 .358.139.488.488 0 0 0 .358-.139l2.553-2.354s0-.047.051-.047a.356.356 0 0 0-.05-.554z"/><path d="M1.6 12.925c0 .836.676 1.475 1.56 1.475h8.844c.884 0 1.56-.64 1.56-1.475v-.984c0-.295-.208-.491-.52-.491-.312 0-.52.196-.52.492v.984c0 .294-.208.49-.52.49H3.16c-.312 0-.52-.196-.52-.491V3.09c0-.295.208-.492.52-.492h8.843c.312 0 .52.197.52.492v.983c0 .296.208.492.52.492.312 0 .52-.196.52-.492V3.09c.001-.834-.675-1.474-1.559-1.474H3.16c-.884 0-1.56.64-1.56 1.475"/></g></svg>