<svg width="25" height="25" viewBox="0 0 25 25" xmlns="http://www.w3.org/2000/svg"><defs><linearGradient x1="-49.561%" y1="-70.786%" x2="134.634%" y2="129.046%" id="a"><stop stop-color="#FFF7D3" offset="0%"/><stop stop-color="#E8D177" offset="100%"/></linearGradient></defs><path d="M11.447 0C5.124 0 0 4.868 0 10.875c0 3.004 1.308 5.748 3.38 7.716C4.415 19.575 0 21.75 0 21.75h11.447c6.324 0 11.448-4.868 11.448-10.875S17.77 0 11.447 0zm-4.36 7.768h5.996c.436 0 .817.362.817.777 0 .414-.381.776-.817.776H7.086c-.436 0-.817-.362-.817-.776 0-.415.381-.777.817-.777zm9.266 6.214H7.086c-.436 0-.817-.362-.817-.777 0-.414.381-.776.817-.776h9.267c.436 0 .818.362.818.776 0 .415-.382.777-.818.777z" transform="translate(1 1)" fill="url(#a)" fill-rule="evenodd"/></svg>