<svg width="16" height="16" viewBox="0 0 16 16" xmlns="http://www.w3.org/2000/svg"><path d="M7.64 15c1.16 0 2.28-.28 3.28-.84.16-.08.28-.24.28-.44s-.08-.36-.24-.48a.593.593 0 0 0-.52 0c-.84.48-1.8.72-2.8.72-3.16 0-5.72-2.56-5.72-5.72 0-3 2.28-5.44 5.2-5.72v5.72c0 .28.24.52.52.52h6.28c.28 0 .52-.24.52-.52 0-3.72-3.04-6.76-6.76-6.76-3.72 0-6.8 3.04-6.8 6.76-.04 3.72 3 6.76 6.76 6.76zm5.72-7.28h-5.2v-5.2c2.76.24 4.92 2.44 5.2 5.2zm-.56 3.04c-.12.28-.28.56-.48.8-.16.24-.12.56.12.72.24.16.56.12.72-.12.2-.32.4-.6.56-.96.12-.24.04-.56-.24-.68a.494.494 0 0 0-.68.24z" fill="#3C3B3C" fill-rule="nonzero"/></svg>