<svg width="16" height="18" viewBox="0 0 16 18" xmlns="http://www.w3.org/2000/svg"><g id="页面1" stroke="none" stroke-width="1" fill="none" fill-rule="evenodd"><g id="消息列表" transform="translate(-21 -90)"><g id="编组-2" transform="translate(10 74)"><g id="编组"><g id="编组-2"><g id="编组-3"><g transform="translate(10 16)" id="通知"><path d="M8.08 3.56H3.22c-.56 0-1.005.544-1.005 1.062v11.274c0 .519.454.94 1.013.94h8.912c.559 0 1.178-.448 1.178-.967V8.51h1.215v7.387c0 1.148-1.162 2.104-2.393 2.104H3.228C1.998 18 1 17.07 1 15.922V4.596c0-1.148.989-2.2 2.22-2.2h4.86v1.165zm1.847 6.06a.596.596 0 0 1 .612.577.595.595 0 0 1-.603.587H4.66a.596.596 0 0 1-.612-.578.595.595 0 0 1 .603-.586h5.275zm-.832-3.616a.596.596 0 0 1 .612.579.595.595 0 0 1-.603.586H4.64a.596.596 0 0 1-.612-.578.595.595 0 0 1 .603-.586h4.465zm-2.38 6.89a.596.596 0 0 1 .612.579.595.595 0 0 1-.603.586H4.689a.596.596 0 0 1-.612-.577.595.595 0 0 1 .603-.587h2.035zM11.149.583v1.942a.595.595 0 0 1-.603.587.596.596 0 0 1-.612-.579V.582c0-.321.272-.582.607-.582.336 0 .608.261.608.582zm5.243 6.295h-2.025a.596.596 0 0 1-.608-.583c0-.322.272-.582.608-.582h2.025c.336 0 .608.26.608.582a.595.595 0 0 1-.608.582zm-1.126-4.918a.568.568 0 0 1 0 .824l-1.433 1.372a.626.626 0 0 1-.858-.03.565.565 0 0 1 0-.792l1.431-1.374a.626.626 0 0 1 .859 0h.001z" id="形状" fill="#5269FF" fill-rule="nonzero"/></g></g></g></g></g></g></g></svg>