<svg width="16" height="16" viewBox="0 0 16 16" xmlns="http://www.w3.org/2000/svg"><path d="M13.709 14.88a.336.336 0 0 1-.337-.335 5.334 5.334 0 0 0-1.573-3.799.336.336 0 0 1 .474-.475 6.005 6.005 0 0 1 1.771 4.274c0 .186-.15.336-.335.336zm-5.71-5.707a5.334 5.334 0 0 0-3.798 1.573 5.334 5.334 0 0 0-1.573 3.799.336.336 0 0 1-.672 0c0-1.615.628-3.132 1.771-4.273A6.001 6.001 0 0 1 8 8.5a.336.336 0 1 1 0 .672zM8 9.178a4.033 4.033 0 0 1-4.03-4.03A4.034 4.034 0 0 1 8 1.12a4.034 4.034 0 0 1 4.03 4.03A4.033 4.033 0 0 1 8 9.178zM8 1.79a3.362 3.362 0 0 0-3.358 3.358A3.361 3.361 0 0 0 8 8.506a3.361 3.361 0 0 0 3.358-3.357A3.362 3.362 0 0 0 8 1.79z" stroke="#3C3B3C" stroke-width=".5" fill="#3C3B3C" fill-rule="nonzero"/></svg>