<svg width="25" height="25" viewBox="0 0 25 25" xmlns="http://www.w3.org/2000/svg"><defs><linearGradient x1="-12.73%" y1="-44.35%" x2="139.002%" y2="165.647%" id="a"><stop stop-color="#851EFF" offset="0%"/><stop stop-color="#4A90E2" offset="100%"/></linearGradient></defs><path d="M12.537 24.861c-.722 0-1.458-.069-2.18-.193a.69.69 0 1 1 .25-1.357c1.236.222 2.486.235 3.721.028a10.893 10.893 0 0 0 3.611-1.315 10.994 10.994 0 0 0 5.153-6.686 10.89 10.89 0 0 0 .292-4.18 10.648 10.648 0 0 0-1.403-4.112c-.708-1.204-1.556-2.201-2.597-3.031a.683.683 0 0 1-.097-.97c.25-.29.68-.346.972-.096a11.98 11.98 0 0 1 2.917 3.419 12.315 12.315 0 0 1 1.25 9.358 12.24 12.24 0 0 1-2.097 4.263 12.11 12.11 0 0 1-3.709 3.253 11.998 11.998 0 0 1-4.069 1.48 16.17 16.17 0 0 1-2.014.14zm-8.11-3.253a.774.774 0 0 1-.473-.18A10.371 10.371 0 0 1 1.8 18.66a12.271 12.271 0 0 1-1.569-4.624 12.315 12.315 0 0 1 .334-4.72 12.218 12.218 0 0 1 2.083-4.263A12.11 12.11 0 0 1 6.357 1.8 12.463 12.463 0 0 1 13.162.166c.375.014.68.346.653.72a.685.685 0 0 1-.722.65 10.984 10.984 0 0 0-6.042 1.44 11.24 11.24 0 0 0-3.292 2.907A10.997 10.997 0 0 0 1.9 9.676a10.891 10.891 0 0 0-.292 4.18c.18 1.452.657 2.852 1.402 4.112 0 .014.015.014.015.027.458.873 1.083 1.662 1.875 2.41a.71.71 0 0 1 .041.982.754.754 0 0 1-.514.221zM12.536 25c-.736 0-1.472-.07-2.208-.208a.847.847 0 0 1-.542-.346.823.823 0 0 1-.14-.623.843.843 0 0 1 .973-.678c1.212.224 2.453.233 3.667.028 1.26-.213 2.47-.654 3.57-1.302h.013a10.702 10.702 0 0 0 3.25-2.851 10.798 10.798 0 0 0 1.834-3.738 10.96 10.96 0 0 0 .291-4.139 10.58 10.58 0 0 0-1.375-4.055 10.771 10.771 0 0 0-2.57-3.005.819.819 0 0 1-.124-1.162.826.826 0 0 1 1.166-.125c1.195.955 2.153 2.09 2.958 3.46a12.32 12.32 0 0 1 1.598 4.694c.21 1.598.096 3.222-.333 4.776a12.285 12.285 0 0 1-2.112 4.318 12.397 12.397 0 0 1-3.75 3.295 11.924 11.924 0 0 1-4.124 1.495c-.675.11-1.358.166-2.042.166zm-8.11-3.253a.865.865 0 0 1-.57-.221c-.917-.86-1.64-1.786-2.18-2.797a12.233 12.233 0 0 1-1.584-4.678 12.588 12.588 0 0 1 .333-4.776 12.285 12.285 0 0 1 2.111-4.32 12.397 12.397 0 0 1 3.75-3.294A12.593 12.593 0 0 1 13.162.014c.458.027.82.415.792.872a.836.836 0 0 1-.834.789h-.042c-2.11-.097-4.166.388-5.971 1.426A11.055 11.055 0 0 0 3.87 5.966a11.048 11.048 0 0 0-1.833 3.738 10.68 10.68 0 0 0-.278 4.139 10.58 10.58 0 0 0 1.389 4.083 8.904 8.904 0 0 0 1.847 2.367c.166.153.25.36.264.582a.8.8 0 0 1-.223.595.794.794 0 0 1-.61.277zm7.43-11.628l-2.39-2.547c-.319-.318-.263-.844.056-1.163.32-.318.848-.263 1.167.056l2.388 2.532c.32.32.264.845-.055 1.163-.361.278-.847.278-1.167-.041zm.596.374c-.25 0-.5-.097-.694-.277L9.37 7.669c-.36-.36-.333-.969.056-1.357.36-.36.972-.332 1.361.056L13.176 8.9c.36.36.333.968-.056 1.356l-.014.014-.013.014c-.186.134-.41.207-.64.208zm-.485-1.495l2.541-2.381c.32-.318.847-.263 1.166.055a.813.813 0 0 1-.055 1.108l-2.542 2.38a.832.832 0 0 1-1.166 0c-.32-.304-.264-.844.056-1.163v.001zm.527 1.55a.945.945 0 0 1-.68-.277.896.896 0 0 1-.25-.692.995.995 0 0 1 .305-.664l2.542-2.382c.36-.359.972-.331 1.361.056l.014.014c.32.385.29.952-.07 1.301l-2.541 2.38a.994.994 0 0 1-.68.264zm7.111-8.264l3.61.692c.431.11.738.526.64.955v.056c-.11.429-.528.733-.958.637l-3.611-.693c-.43-.11-.736-.526-.64-.955v-.055c.112-.43.543-.748.96-.637zm3.472 2.436c-.07 0-.125-.014-.18-.027L19.287 4a1.01 1.01 0 0 1-.57-.387.844.844 0 0 1-.139-.651v-.07c.126-.484.612-.802 1.056-.691l3.61.692c.223.056.432.194.57.388.14.194.181.429.14.65v.07c-.06.228-.197.43-.39.567a.998.998 0 0 1-.486.152zM1.51 19.754l3.61.692c.431.11.737.526.64.955v.055c-.112.43-.528.734-.959.637l-3.61-.692c-.432-.11-.737-.527-.64-.955v-.056c.056-.43.528-.747.959-.636zm3.458 2.422a.83.83 0 0 1-.18-.028l-3.612-.692c-.486-.124-.805-.595-.695-1.038v-.055a.852.852 0 0 1 .362-.568.891.891 0 0 1 .695-.138l3.61.692c.222.055.43.194.57.387.139.194.18.43.139.651v.07c-.126.428-.5.719-.889.719zm11.458-10.312H8.62a.715.715 0 0 1-.737-.735v-.165c0-.43.32-.735.737-.735h7.805c.43 0 .736.319.736.735v.152c.014.429-.306.747-.736.747zm0 .138H8.62a.868.868 0 0 1-.89-.886v-.152c0-.499.375-.886.89-.886h7.805c.5 0 .888.373.888.885v.153a.867.867 0 0 1-.888.885zm-4.68 5.578v-5.883c0-.43.319-.733.735-.733h.153c.43 0 .736.317.736.733v5.925c0 .43-.319.733-.736.733h-.208a.782.782 0 0 1-.68-.775zm-.126-1.869v-1.923h1.93v1.923h-1.93zm-3-5.357a.59.59 0 0 0-.61.61v.152c0 .345.25.609.61.609h7.806a.59.59 0 0 0 .611-.61v-.151a.59.59 0 0 0-.611-.61H8.62zm0 5.205a.715.715 0 0 1-.736-.734v-.152c0-.429.32-.734.737-.734h7.805c.43 0 .736.319.736.734v.153c.014.415-.306.733-.736.733H8.62zm3.373-5.501l.016.02a.696.696 0 0 0 .486.193c.181 0 .361-.069.486-.193l2.542-2.382a.679.679 0 0 0 .042-.913c-.278-.277-.722-.29-.972-.055.01 0-1.31 1.238-2.046 1.929l-1.955-2.095c-.277-.278-.721-.305-.972-.056-.277.277-.305.72-.055.969l2.388 2.547a.841.841 0 0 0 .04.036zM4.764 20.455l.315.06a.811.811 0 0 1 .472.318.612.612 0 0 1 .111.526v.07c-.097.4-.485.664-.847.567l-3.61-.692c-.403-.097-.668-.485-.584-.858v-.07a.667.667 0 0 1 .292-.442.731.731 0 0 1 .555-.111l1.467.281a9.632 9.632 0 0 1-.995-1.513 11.9 11.9 0 0 1-1.555-4.568c-.2-1.561-.092-3.146.319-4.666a12.23 12.23 0 0 1 2.07-4.222A12.054 12.054 0 0 1 6.44 1.91 12.19 12.19 0 0 1 12.55.29h.612a.557.557 0 0 1 .528.582.557.557 0 0 1-.584.526c-2.153-.11-4.277.387-6.11 1.453a11.172 11.172 0 0 0-3.347 2.935A10.976 10.976 0 0 0 1.774 9.62a10.892 10.892 0 0 0-.292 4.236c.184 1.47.666 2.888 1.416 4.167l.014.028a8.774 8.774 0 0 0 1.852 2.404zM21.49 4.265a12.474 12.474 0 0 1 1.56 2.13 12.054 12.054 0 0 1 1.556 4.582c.2 1.561.091 3.146-.319 4.665a12.23 12.23 0 0 1-2.07 4.222 12.054 12.054 0 0 1-3.666 3.226 11.759 11.759 0 0 1-4.028 1.467c-.661.11-1.33.166-2 .166-.708 0-1.444-.069-2.153-.194a.542.542 0 0 1-.36-.235.544.544 0 0 1-.084-.415.54.54 0 0 1 .236-.36.66.66 0 0 1 .32-.097c.027 0 .069.014.11.014 1.25.235 2.514.235 3.765.028a10.946 10.946 0 0 0 3.652-1.33 11.296 11.296 0 0 0 3.333-2.934 10.976 10.976 0 0 0 1.875-3.835 10.98 10.98 0 0 0 .292-4.25 10.925 10.925 0 0 0-1.417-4.166 11.03 11.03 0 0 0-2.622-3.071l-.156-.03a.936.936 0 0 1-.472-.304.611.611 0 0 1-.11-.526v-.07c.097-.402.485-.665.846-.568l3.611.678a.81.81 0 0 1 .473.32.611.611 0 0 1 .11.525v.069a.82.82 0 0 1-.319.457.616.616 0 0 1-.528.11l-1.435-.274zm-8.217 11.17v2.187a.59.59 0 0 1-.611.61h-.209a.67.67 0 0 1-.555-.666v-2.132H8.621a.59.59 0 0 1-.612-.609v-.152c0-.36.264-.609.612-.609h3.277v-2.367c0-.36.264-.61.611-.61h.153a.59.59 0 0 1 .611.61v2.367h3.153a.59.59 0 0 1 .611.61v.152a.59.59 0 0 1-.611.609h-3.153z" fill="url(#a)" fill-rule="nonzero"/></svg>