<?xml version="1.0" encoding="UTF-8"?>
<svg width="16px" height="16px" viewBox="0 0 16 16" version="1.1" xmlns="http://www.w3.org/2000/svg" xmlns:xlink="http://www.w3.org/1999/xlink">
    <!-- Generator: Sketch 55.2 (78181) - https://sketchapp.com -->
    <title>形状</title>
    <desc>Created with Sketch.</desc>
    <defs>
        <linearGradient x1="19.5318712%" y1="113.441777%" x2="67.2083933%" y2="19.560471%" id="linearGradient-1">
            <stop stop-color="#3A74FF" offset="0%"></stop>
            <stop stop-color="#8449FF" offset="100%"></stop>
        </linearGradient>
    </defs>
    <g id="页面1" stroke="none" stroke-width="1" fill="none" fill-rule="evenodd">
        <g id="阿宝详情" transform="translate(-31.000000, -447.000000)" fill="url(#linearGradient-1)" fill-rule="nonzero">
            <g id="功能" transform="translate(31.000000, 447.000000)">
                <g id="形状" transform="translate(0.882542, -0.000000)">
                    <path d="M13.5037487,3.46447697 L7.84862548,0.197072473 C7.39164583,-0.0656908242 6.84327025,-0.0656908242 6.38629061,0.197072473 L0.731167438,3.46447697 C0.274187781,3.72724027 4.42312853e-13,4.20706891 4.42312853e-13,4.7325955 L4.42312853e-13,11.2674045 C4.42312853e-13,11.7929311 0.274187797,12.2727597 0.731167438,12.535523 L6.39771509,15.8029275 C6.85469475,16.0656908 7.40307033,16.0656908 7.86004998,15.8029275 L13.5265976,12.535523 C13.9835773,12.2727597 14.2577651,11.7929311 14.2577651,11.2674045 L14.2577651,4.7325955 C14.2349161,4.20706891 13.9607283,3.72724027 13.5037487,3.46447697 Z M11.3787933,6.32059979 L7.49446627,8.51410211 L7.49446627,12.9353802 C7.48304178,13.1638701 7.43734381,13.3352374 7.24312745,13.3809354 C7.15173152,13.4380578 7.06033559,13.4609068 6.95751517,13.4609068 L6.9118172,13.4609068 C6.76637896,13.4609068 6.62689748,13.4031317 6.52405711,13.3002913 C6.42121674,13.197451 6.36344163,13.0579695 6.36344163,12.9125312 L6.36344163,8.38843271 C6.36344163,8.35415924 6.36344163,8.31988575 6.37486611,8.28561229 L2.90182078,6.32059979 C2.63905748,6.17208139 2.49053909,5.84077116 2.63905747,5.57800786 C2.78757586,5.31524457 3.09603713,5.22384863 3.34737594,5.37236702 L7.12888253,7.56586933 L10.9218136,5.37236702 C11.1845769,5.22384863 11.4701892,5.31524457 11.6187076,5.57800786 C11.767226,5.82934668 11.6415566,6.17208141 11.3787933,6.32059979 Z"></path>
                </g>
            </g>
        </g>
    </g>
</svg>