<svg width="40" height="40" viewBox="0 0 40 40" xmlns="http://www.w3.org/2000/svg"><g fill="none" fill-rule="evenodd"><rect width="40" height="40" rx="20" fill="#FFF"/><path d="M20 21.5c1.375 0 2.5-1.125 2.5-2.5v-3c0-1.375-1.125-2.5-2.5-2.5a2.507 2.507 0 0 0-2.5 2.5v3c0 1.375 1.125 2.5 2.5 2.5zm4.447-1.806a.499.499 0 1 0-.988-.153A3.523 3.523 0 0 1 20 22.5a3.524 3.524 0 0 1-3.46-2.96.5.5 0 1 0-.987.152A4.468 4.468 0 0 0 19.5 23.47V25H18a.5.5 0 1 0 0 1h4a.5.5 0 1 0 0-1h-1.5v-1.53a4.468 4.468 0 0 0 3.947-3.776z" fill="#5B5B5B" fill-rule="nonzero"/></g></svg>