<svg width="40" height="40" viewBox="0 0 40 40" xmlns="http://www.w3.org/2000/svg"><g fill="none" fill-rule="evenodd"><rect fill="#FFF" width="40" height="40" rx="20"/><g fill-rule="nonzero" fill="#303030"><path d="M13.37 16.444a.45.45 0 0 1-.456-.444v-1.926c0-.653.546-1.185 1.218-1.185h1.98a.45.45 0 0 1 .456.444.45.45 0 0 1-.457.445h-1.98a.301.301 0 0 0-.304.296V16a.45.45 0 0 1-.457.444zm2.741 10.667h-1.98c-.67 0-1.217-.532-1.217-1.185V24a.45.45 0 0 1 .456-.444.45.45 0 0 1 .457.444v1.926c0 .163.137.296.305.296h1.98a.45.45 0 0 1 .456.445.45.45 0 0 1-.457.444zm10.202 0h-1.98a.45.45 0 0 1-.456-.444.45.45 0 0 1 .456-.445h1.98a.301.301 0 0 0 .304-.296V24a.45.45 0 0 1 .457-.444.45.45 0 0 1 .457.444v1.926c0 .653-.547 1.185-1.218 1.185zm.761-10.667a.45.45 0 0 1-.457-.444v-1.926a.301.301 0 0 0-.304-.296h-1.98a.45.45 0 0 1-.456-.445.45.45 0 0 1 .456-.444h1.98c.671 0 1.218.532 1.218 1.185V16a.45.45 0 0 1-.457.444zm-6.803 4.446c-1.51 0-2.74-1.195-2.74-2.665s1.23-2.665 2.74-2.665c1.51 0 2.74 1.196 2.74 2.665 0 1.47-1.23 2.665-2.74 2.665zm0-4.441c-1.007 0-1.826.797-1.826 1.776 0 .98.82 1.776 1.826 1.776 1.006 0 1.826-.797 1.826-1.776 0-.98-.82-1.776-1.826-1.776z"/><path d="M16.504 24.444a.45.45 0 0 1-.457-.444c0-1.068.428-2.073 1.203-2.827a4.137 4.137 0 0 1 2.905-1.17.45.45 0 0 1 .457.444.45.45 0 0 1-.457.445c-1.761 0-3.196 1.395-3.196 3.11a.448.448 0 0 1-.455.442z"/><path d="M23.8 24.444a.45.45 0 0 1-.456-.444c0-1.714-1.435-3.11-3.196-3.11a.45.45 0 0 1-.457-.444.45.45 0 0 1 .457-.445c1.097 0 2.13.417 2.905 1.17A3.915 3.915 0 0 1 24.256 24a.448.448 0 0 1-.456.445z"/></g></g></svg>